<?xml version="1.0" encoding="utf-8"?>
<!-- Generator: Adobe Illustrator 12.0.1, SVG Export Plug-In  -->
<!DOCTYPE svg PUBLIC "-//W3C//DTD SVG 1.1//EN" "http://www.w3.org/Graphics/SVG/1.1/DTD/svg11.dtd" [
	<!ENTITY ns_flows "http://ns.adobe.com/Flows/1.0/">
	<!ENTITY ns_svg "http://www.w3.org/2000/svg">
	<!ENTITY ns_xlink "http://www.w3.org/1999/xlink">
]>
<svg  version="1.1" xmlns="&ns_svg;" xmlns:xlink="&ns_xlink;" xmlns:a="http://ns.adobe.com/AdobeSVGViewerExtensions/3.0/"
	 width="250" height="240" viewBox="-5.392 -2.579 250 240" enable-background="new -5.392 -2.579 250 240" xml:space="preserve">
<defs>
</defs>
<circle fill="none" stroke="#000000" stroke-dasharray="8" cx="102.603" cy="125.088" r="45.379"/>
<path fill="none" stroke="#000000" stroke-dasharray="12" d="M204.705,125.088c0,56.395-45.712,102.103-102.103,102.103
	C46.208,227.19,0.5,181.482,0.5,125.088c0-56.395,45.708-102.103,102.103-102.103C158.993,22.985,204.705,68.693,204.705,125.088z"
	/>
<circle fill="none" stroke="#000000" stroke-dasharray="6" cx="102.603" cy="125.088" r="11.345"/>
<circle fill="#006B33" stroke="#00FF00" cx="102.602" cy="125.088" r="4.972"/>
<text transform="matrix(1 0 0 1 82.6343 20.0879)" fill="#003CFF" font-family="'Myriad-Roman'" font-size="24">n=3</text>
<text transform="matrix(1 0 0 1 82.6343 76.0879)" fill="#003CFF" font-family="'Myriad-Roman'" font-size="24">n=2</text>
<text transform="matrix(1 0 0 1 82.6343 111.0879)" fill="#003CFF" font-family="'Myriad-Roman'" font-size="24">n=1</text>
<radialGradient id="XMLID_1_" cx="174.8018" cy="52.8892" r="4.8821" gradientUnits="userSpaceOnUse">
	<stop  offset="0.0056" style="stop-color:#BF0000"/>
	<stop  offset="1" style="stop-color:#FFFFFF"/>
</radialGradient>
<circle fill="url(#XMLID_1_)" cx="174.801" cy="52.889" r="4.882"/>
<circle fill="#BF0000" stroke="#FF0000" cx="134.69" cy="93" r="4.882"/>
<path fill="none" stroke="#FF0000" d="M228.642,124.092c0,0-11.88,8.201-9.922-6.646c1.959-14.846-9.922-6.645-9.922-6.645
	s-11.88,8.201-9.922-6.646c1.959-14.846-9.921-6.645-9.921-6.645s-11.881,8.201-9.923-6.646c1.959-14.846-9.922-6.646-9.922-6.646
	s-11.88,8.201-9.922-6.646s-9.922-6.645-9.922-6.645"/>
<path fill="#FF0000" d="M239.343,118.057h2.281c-0.146,0.328-0.898,1.888-2.257,4.678c-0.565,1.168-0.972,2.053-1.218,2.654
	c-0.109,0.246-0.232,0.515-0.369,0.807l-1.573,3.365c0.063,0.582,0.109,1.119,0.137,1.611c0.027,0.491,0.043,0.938,0.046,1.338
	c0,1.237-0.091,2.193-0.273,2.867c-0.127,0.473-0.296,0.799-0.506,0.977c-0.209,0.177-0.437,0.266-0.683,0.266
	c-0.301,0-0.567-0.127-0.799-0.383c-0.232-0.254-0.349-0.582-0.349-0.982c0-0.701,0.14-1.509,0.42-2.424
	c0.28-0.914,0.698-1.941,1.255-3.078c-0.666-4.659-1.197-7.471-1.594-8.436c-0.397-0.965-0.946-1.447-1.648-1.447
	c-0.429,0-0.767,0.13-1.013,0.389s-0.434,0.843-0.561,1.752h-0.531c-0.01-0.273-0.016-0.479-0.016-0.615
	c0-1.259,0.246-2.207,0.738-2.846c0.374-0.474,0.876-0.711,1.505-0.711c0.547,0,0.994,0.164,1.341,0.492
	c0.474,0.464,0.898,1.476,1.271,3.033c0.475,2.022,0.844,4.222,1.108,6.6l1.205-4.064
	C237.8,122.075,238.493,120.127,239.343,118.057z"/>
<g>
	<g>
		<path fill="none" stroke="#FFCC66" d="M166.094,51.524c-5.625,1.155-12.67,5.282-18.986,11.598
			c-5.739,5.739-9.67,12.08-11.207,17.41"/>
		<path fill="#FFCC66" d="M136.23,83.085c0.938-1.45,1.678-2.355,2.557-3.482l-4.847-1.398c0.085,0.519,0.289,2.582,0.31,4.309
			c0.023,1.848-0.069,3.491-0.232,4.527C134.431,86.078,135.228,84.638,136.23,83.085z"/>
	</g>
</g>
</svg>
